{"title":"Lady_Antebellum_Ellen_FULL_720p_20110214_TTL","uid":6187858,"size":348038203,"categoryP":"video","categoryS":"hd___tv_shows","magnet":"?xt=urn:btih:75a097a15da9ce0666e233f2e63cfa5b48b02250&amp;dn=Lady_Antebellum_Ellen_FULL_720p_20110214_TTL&amp;tr=udp%3A%2F%2Ftracker.openbittorrent.com%3A80&amp;tr=udp%3A%2F%2Fopen.demonii.com%3A1337&amp;tr=udp%3A%2F%2Ftracker.coppersurfer.tk%3A6969&amp;tr=udp%3A%2F%2Fexodus.desync.com%3A6969","seeders":0,"leechers":0,"uploader":"thetorrentlord","files":4,"time":1298176806,"description":"This is the full segment from Ellen and a separate file of just the live performance and an MP3. Enjoy and please share.\t\t\t\t\t\t\t\t\t\t\t\t\t\t\t\t\t\t\t\t\t\t\t\t\t\t\t\t\t\t\t\t\t\t\t\t\t\t\t\t\t\t\t                                                                          ****************************************************************************************\t\t\t\t\t\t\t\t\t\t\t\t\t\t\t\t\t\t\t\t\t\t\t\t\t\t\t\t\t\t\t\t\t\t\t\t\t\t\t\t\t\t\t\t\t\t\t\t\t              Ellen_Lady_Antebellum_FULL_720p_20110214_TTL.avi\nFormat                           : AVI\nFormat/Info                      : Audio Video Interleave\nFile size                        : 211 MiB\nDuration                         : 14mn 55s\nOverall bit rate                 : 1 979 Kbps\nDirector                         : created.with.SUPER(C).v2010.bld.37\nWriting application              : SUPER(C) - by eRightSoft\n\nVideo\nID                               : 0\nFormat                           : MPEG-4 Visual\nFormat profile                   : Advanced Simple@L5\nFormat settings, BVOP            : Yes\nFormat settings, QPel            : No\nFormat settings, GMC             : No warppoints\nFormat settings, Matrix          : Default (MPEG)\nCodec ID                         : XVID\nCodec ID/Hint                    : XviD\nDuration                         : 7mn 27s\nBit rate                         : 3 833 Kbps\nWidth                            : 1 280 pixels\nHeight                           : 720 pixels\nDisplay aspect ratio             : 16:9\nFrame rate                       : 29.970 fps\nResolution                       : 8 bits\nColorimetry                      : 4:2:0\nScan type                        : Progressive\nBits/(Pixel*Frame)               : 0.139\nStream size                      : 205 MiB (97%)\nWriting library                  : XviD 1.1.2 (UTC 2006-11-01)\n\nAudio\nID                               : 1\nFormat                           : MPEG Audio\nFormat version                   : Version 2\nFormat profile                   : Layer 3\nCodec ID                         : 55\nCodec ID/Hint                    : MP3\nDuration                         : 14mn 55s\nBit rate mode                    : Constant\nBit rate                         : 112 Kbps\nChannel(s)                       : 2 channels\nSampling rate                    : 22.05 KHz\nVideo delay                      : 33ms\nStream size                      : 5.98 MiB (3%)\nAlignment                        : Aligned on interleaves\nInterleave, duration             : 26 ms (0.78 video frame)\nInterleave, preload duration     : 522 ms\nWriting library                  : LAME3.97\n\n","torrent":{"xt":"urn:btih:75a097a15da9ce0666e233f2e63cfa5b48b02250","amp;dn":"Lady_Antebellum_Ellen_FULL_720p_20110214_TTL","amp;tr":["udp%3A%2F%2Ftracker.openbittorrent.com%3A80","udp%3A%2F%2Fopen.demonii.com%3A1337","udp%3A%2F%2Ftracker.coppersurfer.tk%3A6969","udp%3A%2F%2Fexodus.desync.com%3A6969"],"infoHash":"75a097a15da9ce0666e233f2e63cfa5b48b02250","infoHashBuffer":{"type":"Buffer","data":[117,160,151,161,93,169,206,6,102,226,51,242,230,60,250,91,72,176,34,80]},"announce":[],"urlList":[]}}